<svg width="28" height="28" viewBox="0 0 28 28" fill="none" xmlns="http://www.w3.org/2000/svg">
<path d="M24.0017 8L25.255 5.25333L28.0017 4L25.255 2.74667L24.0017 0L22.7484 2.74667L20.0017 4L22.7484 5.25333L24.0017 8Z" fill="#E1BBFB"/>
<path d="M8.66835 8L9.92169 5.25333L12.6684 4L9.92169 2.74667L8.66835 0L7.41502 2.74667L4.66835 4L7.41502 5.25333L8.66835 8Z" fill="#E1BBFB"/>
<path d="M24.0017 15.3333L22.7484 18.08L20.0017 19.3333L22.7484 20.5867L24.0017 23.3333L25.255 20.5867L28.0017 19.3333L25.255 18.08L24.0017 15.3333Z" fill="#E1BBFB"/>
<path d="M20.9484 10.8267L17.175 7.05333C16.9084 6.8 16.575 6.66667 16.2284 6.66667C15.8817 6.66667 15.5484 6.8 15.2817 7.05333L0.388352 21.9467C-0.131648 22.4667 -0.131648 23.3067 0.388352 23.8267L4.16169 27.6C4.42835 27.8667 4.76169 28 5.10835 28C5.45502 28 5.78835 27.8667 6.05502 27.6133L20.9484 12.72C21.4684 12.2 21.4684 11.3467 20.9484 10.8267ZM16.2284 9.89333L18.1084 11.7733L16.5484 13.3333L14.6684 11.4533L16.2284 9.89333ZM5.10835 24.7867L3.22835 22.9067L12.7884 13.3333L14.6684 15.2133L5.10835 24.7867Z" fill="#E1BBFB"/>
</svg>
