<svg width="32" height="32" viewBox="0 0 32 32" fill="none" xmlns="http://www.w3.org/2000/svg">
<path d="M22.6667 10.6667H9.33335C7.86669 10.6667 6.66669 11.8667 6.66669 13.3334V26.6667C6.66669 28.1334 7.86669 29.3334 9.33335 29.3334H22.6667C24.1334 29.3334 25.3334 28.1334 25.3334 26.6667V13.3334C25.3334 11.8667 24.1334 10.6667 22.6667 10.6667ZM17.3334 27.3334H14.6667V25.3334H17.3334V27.3334ZM17.3334 24.0001H14.6667C14.6667 22.0001 11.3334 20.0001 11.3334 17.3334C11.3334 14.7601 13.4267 12.6667 16 12.6667C18.5734 12.6667 20.6667 14.7601 20.6667 17.3334C20.6667 20.0001 17.3334 22.0001 17.3334 24.0001ZM24 8.66675H8.00002C8.00002 7.56008 8.89335 6.66675 10 6.66675H22C23.1067 6.66675 24 7.56008 24 8.66675ZM22.6667 4.66675H9.33335C9.33335 3.56008 10.2267 2.66675 11.3334 2.66675H20.6667C21.7734 2.66675 22.6667 3.56008 22.6667 4.66675Z" fill="#E1BBFB"/>
</svg>
