<svg width="32" height="32" viewBox="0 0 32 32" fill="none" xmlns="http://www.w3.org/2000/svg">
<g clip-path="url(#clip0_502_4387)">
<path d="M26.6667 24.6667C28.1334 24.6667 29.32 23.4667 29.32 22.0001L29.3333 7.33341C29.3333 5.86675 28.1334 4.66675 26.6667 4.66675H5.33335C3.86668 4.66675 2.66668 5.86675 2.66668 7.33341V22.0001C2.66668 23.4667 3.86668 24.6667 5.33335 24.6667H1.52588e-05C1.52588e-05 26.1334 1.20002 27.3334 2.66668 27.3334H29.3333C30.8 27.3334 32 26.1334 32 24.6667H26.6667ZM5.33335 7.33341H26.6667V22.0001H5.33335V7.33341ZM16 26.0001C15.2667 26.0001 14.6667 25.4001 14.6667 24.6667C14.6667 23.9334 15.2667 23.3334 16 23.3334C16.7333 23.3334 17.3333 23.9334 17.3333 24.6667C17.3333 25.4001 16.7333 26.0001 16 26.0001Z" fill="#E1BBFB"/>
</g>
<defs>
<clipPath id="clip0_502_4387">
<rect width="32" height="32" fill="white"/>
</clipPath>
</defs>
</svg>
