<svg width="28" height="22" viewBox="0 0 28 22" fill="none" xmlns="http://www.w3.org/2000/svg">
<path d="M22 9.66658C22 10.5599 22 11.4399 22 12.3333C23.6 12.3333 25.68 12.3333 27.3334 12.3333C27.3334 11.4399 27.3334 10.5599 27.3334 9.66658C25.68 9.66658 23.6 9.66658 22 9.66658Z" fill="#E1BBFB"/>
<path d="M19.3334 18.4799C20.6134 19.4266 22.28 20.6799 23.6 21.6666C24.1334 20.9599 24.6667 20.2399 25.2 19.5333C23.88 18.5466 22.2134 17.2933 20.9334 16.3333C20.4 17.0533 19.8667 17.7733 19.3334 18.4799Z" fill="#E1BBFB"/>
<path d="M25.2 2.46658C24.6667 1.75992 24.1334 1.03992 23.6 0.333252C22.28 1.31992 20.6134 2.57325 19.3334 3.53325C19.8667 4.23992 20.4 4.95992 20.9334 5.66658C22.2134 4.70658 23.88 3.46658 25.2 2.46658Z" fill="#E1BBFB"/>
<path d="M3.33335 6.99992C1.86669 6.99992 0.666687 8.19992 0.666687 9.66658V12.3333C0.666687 13.7999 1.86669 14.9999 3.33335 14.9999H4.66669V20.3333H7.33335V14.9999H8.66669L15.3334 18.9999V2.99992L8.66669 6.99992H3.33335ZM10.04 9.27992L12.6667 7.70658V14.2933L10.04 12.7199L9.40002 12.3333H3.33335V9.66658H9.40002L10.04 9.27992Z" fill="#E1BBFB"/>
<path d="M18.6667 10.9999C18.6667 9.22658 17.8934 7.62658 16.6667 6.53325V15.4533C17.8934 14.3733 18.6667 12.7733 18.6667 10.9999Z" fill="#E1BBFB"/>
</svg>
