<svg width="19" height="19" viewBox="0 0 19 19" fill="none" xmlns="http://www.w3.org/2000/svg">
<path d="M4.41703 12.208C3.66772 12.208 2.99064 12.515 2.50314 13.0025C1.43786 14.0678 0.805916 18.5275 0.805916 18.5275C0.805916 18.5275 5.26564 17.8955 6.33092 16.8303C6.81842 16.3428 7.12536 15.6657 7.12536 14.9164C7.12536 13.4178 5.91564 12.208 4.41703 12.208ZM5.058 15.5573C4.80522 15.8101 3.09897 16.2435 3.09897 16.2435C3.09897 16.2435 3.52328 14.5462 3.78508 14.2844C3.93855 14.1129 4.16425 14.0136 4.41703 14.0136C4.91355 14.0136 5.3198 14.4198 5.3198 14.9164C5.3198 15.1692 5.2205 15.3948 5.058 15.5573ZM14.7267 10.9893C20.4684 5.24763 18.5545 0.778878 18.5545 0.778878C18.5545 0.778878 14.0858 -1.13501 8.34411 4.60666L6.09619 4.15527C5.50939 4.03791 4.8955 4.22749 4.46217 4.6518L0.805916 8.31707L5.3198 10.249L9.08439 14.0136L11.0163 18.5275L14.6726 14.8712C15.0969 14.4469 15.2865 13.833 15.1691 13.2372L14.7267 10.9893ZM5.68994 8.44346L3.96564 7.70318L5.74411 5.92471L7.04411 6.18652C6.52953 6.93582 6.06911 7.72124 5.68994 8.44346ZM11.6302 15.3678L10.8899 13.6435C11.6122 13.2643 12.3976 12.8039 13.1379 12.2893L13.3997 13.5893L11.6302 15.3678ZM13.4448 9.71638C12.2531 10.908 10.3934 11.883 9.79758 12.181L7.15244 9.53582C7.44133 8.94902 8.41633 7.08929 9.61703 5.8886C13.842 1.6636 17.0469 2.28652 17.0469 2.28652C17.0469 2.28652 17.6698 5.49138 13.4448 9.71638ZM12.542 8.59693C13.5351 8.59693 14.3476 7.78443 14.3476 6.79138C14.3476 5.79832 13.5351 4.98582 12.542 4.98582C11.549 4.98582 10.7365 5.79832 10.7365 6.79138C10.7365 7.78443 11.549 8.59693 12.542 8.59693Z" fill="#E1BBFB"/>
</svg>
